<!--version="1.0" standalone="no"--><!DOCTYPE html PUBLIC "-//W3C//DTD SVG 1.0//EN"
  "http://www.w3.org/TR/2001/REC-SVG-20010904/DTD/svg10.dtd">
<svg contentScriptType="text/ecmascript"
     contentStyleType="text/css" height="67135.648" id="body_-636851574_27319" preserveAspectRatio="xMidYMid meet"
     version="1.0" width="73991.07" xmlns="http://www.w3.org/2000/svg" zoomAndPan="magnify">

  <g transform="matrix(95.500799 0 0 -95.500799 408.69507 64566.882)">
    <g>
      <g>
        <path
          d="M370.04543 508.61333L145.04543 508.61333L145.04543 321.11333L155.04543 321.11333L155.04543 498.61333L370.04543 498.61333L370.04543 508.61333M445.04448 508.61333L370.04543 508.61333L370.04543 498.61333L445.04448 498.61333L445.04448 508.61333M595.04543 508.61333L445.04448 508.61333L445.04448 498.61333L585.04543 498.61333L585.04543 396.10149L595.04543 396.10149L595.04543 508.61333M595.04543 396.10149L585.04543 396.10149L585.04543 321.11333L595.04543 321.11333L595.04543 396.10149M595.04543 321.11333L585.04543 321.11333L585.04543 143.61333L370.04543 143.61333L370.04543 133.61333L595.04543 133.61333L595.04543 321.11333M370.04543 143.61333L155.04543 143.61333L155.04543 321.11333L145.04543 321.11333L145.04543 133.61333L370.04543 133.61333L370.04543 143.61333"
          fill="#000000" fill-opacity="1" fill-rule="evenodd" stroke="#000000" stroke-opacity="1" stroke-width="0"/>
      </g>
      <path d="M155.04543 498.61333L585.04543 498.61333L585.04543 143.61333L155.04543 143.61333L155.04543 498.61333"
            fill="none" stroke="#000000" stroke-linecap="round" stroke-linejoin="round" stroke-width="0.075854756"/>
      <path d="M145.04543 508.61333L595.04543 508.61333L595.04543 133.61333L145.04543 133.61333L145.04543 508.61333"
            fill="none" stroke="#000000" stroke-linecap="round" stroke-linejoin="round" stroke-width="0.075854756"/>
      <path d="M100.04543 321.11333L640.04543 321.11333" fill="none" stroke="#000000"
            stroke-linecap="round" stroke-linejoin="round" stroke-width="0.075854756"/>
      <path d="M370.04543 553.61333L370.04543 104.04965" fill="none" stroke="#000000"
            stroke-linecap="round" stroke-linejoin="round" stroke-width="0.075854756"/>
      <path d="M370.04448 508.61333L370.04448 580.3171" fill="none" stroke="#000000"
            stroke-linecap="round" stroke-linejoin="round" stroke-width="0.075854756"/>
      <g>
        <path
          d="M445.02614 372.73448L445.03531 396.04704L421.71359 396.04704L421.77037 394.42083L421.94046 392.80255L422.22302 391.20008L422.61667 389.62122L423.11951 388.07367L423.72906 386.56496L424.44238 385.10245L425.25597 383.69326L426.16589 382.34426L427.16769 381.06201L428.25649 379.85277L429.427 378.72243L430.6735 377.67649L431.98992 376.72005L433.36986 375.85777L434.80659 375.09385L436.2931 374.43201L437.82216 373.87548L439.38632 373.42696L440.97796 373.08865L442.58931 372.86219L445.02614 372.73448M468.33863 396.10149L468.27805 397.72755L468.10418 399.34543L467.81788 400.94723L467.42054 402.52517L466.91409 404.07154L466.30101 405.57882L465.58429 407.03966L464.7674 408.44695L463.85434 409.79383L462.84954 411.07373L461.75792 412.28042L460.58478 413.40803L459.33584 414.45105L458.01718 415.40442L456.63523 416.26347L455.19673 417.02403L453.70867 417.6824L452.17831 418.23536L450.61311 418.68022L449.02069 419.01481L447.40881 419.23751L445.78532 419.34723L445.04448 419.35958L445.04448 396.10149L468.33863 396.10149"
          fill="#000000" fill-opacity="1" fill-rule="evenodd" stroke="#000000" stroke-opacity="1" stroke-width="0"/>
      </g>
      <path d="M445.04448 388.97151L445.04448 580.3171" fill="none" stroke="#000000"
            stroke-linecap="round" stroke-linejoin="round" stroke-width="0.075854756"/>
      <path d="M673.61004 396.10149L437.36289 396.10149" fill="none" stroke="#000000"
            stroke-linecap="round" stroke-linejoin="round" stroke-width="0.075854756"/>
      <path d="M673.61004 321.10149L602.88711 321.10149" fill="none" stroke="#000000"
            stroke-linecap="round" stroke-linejoin="round" stroke-width="0.075854756"/>
      <g>
        <path
          d="M678.1513 344.53426L692.90738 365.52744L679.2542 384.92331L687.81121 384.92331L694.01028 375.45356L695.1005 373.75061L696.03861 372.24204L696.82458 370.92786L697.91058 372.53784L698.93742 374.02105L699.9051 375.3775L706.71267 384.92331L714.88937 384.92331L700.93194 365.90775L715.95424 344.53426L707.54936 344.53426L699.25857 357.08453L697.05277 360.4693L686.44209 344.53426L678.1513 344.53426zM722.22937 344.53426L722.22937 400.28788L743.14649 400.28788L747.12496 400.09984L750.54143 399.53571L753.39587 398.5955L755.78338 397.26441L757.79903 395.52765L759.44282 393.38523L760.6577 391.00406L761.38664 388.55105L761.62961 386.02621L761.4141 383.68941L760.76757 381.44557L759.69003 379.2947L758.17722 377.32554L756.22497 375.62681L753.83323 374.19853L756.94544 372.97731L759.5379 371.29126L761.6106 369.14039L763.12127 366.61344L764.02769 363.79913L764.32982 360.69748L764.146 358.14729L763.59455 355.71963L762.67547 353.41452L761.48593 351.34183L760.12316 349.61141L758.58712 348.22328L756.82712 347.10559L754.79246 346.1865L752.48313 345.46602L749.85264 344.94838L746.85452 344.63779L743.48877 344.53426L722.22937 344.53426zM741.66327 376.86071L744.62547 376.93255L746.97073 377.14806L748.69903 377.50724L750.42099 378.18758L751.83449 379.113L752.9395 380.28351L753.73181 381.68644L754.20721 383.3091L754.36567 385.15149L754.21776 386.9284L753.77407 388.55739L753.03458 390.03849L752.02041 391.29775L750.75271 392.2612L749.23147 392.92886L747.19046 393.36199L744.36348 393.62187L740.75053 393.7085L729.60741 393.7085L729.60741 376.86071zM743.48877 351.11364L745.63541 351.14323L747.30878 351.23196L748.50888 351.37986L750.11463 351.75173L751.53446 352.2588L752.76836 352.9011L753.84168 353.71878L754.77979 354.75195L755.58266 356.00064L756.19538 357.42681L756.56302 358.99242L756.68557 360.69748L756.50808 362.68567L755.97565 364.49214L755.08826 366.11692L753.88605 367.49872L752.40918 368.57626L750.65763 369.34956L748.49197 369.86721L745.77275 370.1778L742.49996 370.28133L729.60741 370.28133L729.60741 351.11364z"
          fill="#000000" fill-opacity="1" fill-rule="evenodd" stroke="#000000" stroke-linejoin="round"
          stroke-width="0.075854756"/>
      </g>
      <g>
        <path
          d="M3.8740724 291.20744L3.8740724 351.20744L26.384303 351.20744L30.665792 351.00508L34.342466 350.39798L37.414316 349.38616L39.983662 347.95369L42.152834 346.08465L43.921819 343.77906L45.229228 341.21654L46.013679 338.5767L46.275161 335.85955L46.043234 333.34478L45.347467 330.93004L44.187849 328.61535L42.559833 326.49621L40.458882 324.6681L37.884984 323.13104L41.234231 321.81681L44.024139 320.00235L46.254697 317.68766L47.880433 314.96825L48.85588 311.93959L49.181027 308.60171L48.983206 305.85729L48.389759 303.24473L47.400673 300.76406L46.120542 298.5335L44.65397 296.67129L43.000946 295.17743L41.1069 293.97461L38.917272 292.98552L36.432051 292.21017L33.601216 291.65311L30.374753 291.31885L26.752652 291.20744L3.8740724 291.20744zM24.788123 325.99598L27.975933 326.07329L30.49981 326.30521L32.359746 326.69175L34.212858 327.42391L35.734007 328.41981L36.923183 329.67947L37.775841 331.18925L38.28744 332.9355L38.457972 334.91822L38.298806 336.83045L37.821319 338.58352L37.025503 340.17743L35.934095 341.53259L34.569841 342.56942L32.932733 343.28793L30.736278 343.75405L27.693989 344.03372L23.805858 344.12695L11.814044 344.12695L11.814044 325.99598zM26.752652 298.28793L29.062791 298.31977L30.863612 298.41526L32.155107 298.57443L33.883163 298.97461L35.411133 299.52031L36.739009 300.21153L37.894076 301.09149L38.903629 302.20335L39.767658 303.54714L40.427046 305.08194L40.822683 306.76678L40.954561 308.60171L40.763562 310.74132L40.190578 312.68538L39.235598 314.43391L37.941825 315.92095L36.35247 317.08056L34.467522 317.91276L32.136915 318.46984L29.210587 318.80407L25.688532 318.91549L11.814044 318.91549L11.814044 298.28793z"
          fill="#000000" fill-opacity="1" fill-rule="evenodd" stroke="#000000" stroke-linejoin="round"
          stroke-width="0.075854756"/>
      </g>
      <path d="M34.454758 508.61333L134.50623 508.61333" fill="none" stroke="#000000"
            stroke-linecap="round" stroke-linejoin="round" stroke-width="0.075854756"/>
      <path
        d="M73.548709 473.17583L79.000858 473.17583L79.000858 473.17583L79.000858 169.05083L79.000858 169.05083L73.548709 169.05083L73.548709 169.05083L81.000858 133.61333L81.000858 133.61333L81.002961 133.61333L81.002961 133.61333L88.500858 169.05083L88.500858 169.05083L83.000858 169.05083L83.000858 169.05083L83.000858 473.17583L83.000858 473.17583L88.500858 473.17583L88.500858 473.17583L81.000858 508.61333L81.000858 508.61333L73.548709 473.17583"
        fill="#000000" fill-opacity="1" fill-rule="evenodd" stroke="#000000" stroke-opacity="1" stroke-width="0"/>
      <path d="M141.98716 133.61333L66.929964 133.61333" fill="none" stroke="#000000"
            stroke-linecap="round" stroke-linejoin="round" stroke-width="0.075854756"/>
      <path
        d="M353.86243 39.535238L353.86243 91.525681L360.74248 91.525681L360.74248 45.670536L386.34759 45.670536L386.34759 39.535238L353.86243 39.535238z"
        fill="#000000" fill-opacity="1" fill-rule="evenodd" stroke="#000000" stroke-linejoin="round"
        stroke-width="0.075854756"/>
      <path d="M145.04543 16.104265L145.04543 110.06808" fill="none" stroke="#000000"
            stroke-linecap="round" stroke-linejoin="round" stroke-width="0.075854756"/>
      <path d="M595.04543 16.104265L595.04543 111.58494" fill="none" stroke="#000000"
            stroke-linecap="round" stroke-linejoin="round" stroke-width="0.075854756"/>
      <path d="M145.04543 122.44689L145.04543 1.8062015" fill="none" stroke="#000000"
            stroke-linecap="round" stroke-linejoin="round" stroke-width="0.075854756"/>
      <path d="M595.04543 122.44689L595.04543 1.8062015" fill="none" stroke="#000000"
            stroke-linecap="round" stroke-linejoin="round" stroke-width="0.075854756"/>
      <path
        d="M657.70117 321.46831L650.24902 286.03081L655.70117 286.03081L655.70117 229.71186L659.70117 229.71186L659.70117 286.03081L665.20117 286.03081L657.70117 321.46831"
        fill="#000000" fill-opacity="1" fill-rule="evenodd" stroke="#000000" stroke-opacity="1" stroke-width="0"/>
      <path d="M655.70117 286.03081L655.70117 229.71186" fill="none" stroke="#000000"
            stroke-linecap="round" stroke-linejoin="round" stroke-width="0.075854756"/>
      <path d="M659.70117 286.03081L659.70117 229.71186" fill="none" stroke="#000000"
            stroke-linecap="round" stroke-linejoin="round" stroke-width="0.075854756"/>
      <path d="M650.24902 286.03081L655.70117 286.03081" fill="none" stroke="#000000"
            stroke-linecap="round" stroke-linejoin="round" stroke-width="0.075854756"/>
      <path d="M665.20117 286.03081L659.70117 286.03081" fill="none" stroke="#000000"
            stroke-linecap="round" stroke-linejoin="round" stroke-width="0.075854756"/>
      <path d="M657.70117 321.46831L650.24902 286.03081" fill="none" stroke="#000000"
            stroke-linecap="round" stroke-linejoin="round" stroke-width="0.075854756"/>
      <path d="M665.20117 286.03081L657.70117 321.46831" fill="none" stroke="#000000"
            stroke-linecap="round" stroke-linejoin="round" stroke-width="0.075854756"/>
      <path d="M659.70117 229.71186L655.70117 229.71186" fill="none" stroke="#000000"
            stroke-linecap="round" stroke-linejoin="round" stroke-width="0.075854756"/>
      <g>
        <path
          d="M334.60698 573.50917L334.60698 568.00917L278.28803 568.00917L278.28803 566.00917L370.04448 566.00917L334.60698 573.50917M370.04448 566.00917L278.28803 566.00917L278.28803 564.00917L334.60698 564.00917L334.60698 558.55702L370.04448 566.00917"
          fill="#000000" fill-opacity="1" fill-rule="evenodd" stroke="#000000" stroke-opacity="1" stroke-width="0"/>
      </g>
      <path d="M334.60698 564.00917L278.28803 564.00917" fill="none" stroke="#000000"
            stroke-linecap="round" stroke-linejoin="round" stroke-width="0.075854756"/>
      <path d="M334.60698 568.00917L278.28803 568.00917" fill="none" stroke="#000000"
            stroke-linecap="round" stroke-linejoin="round" stroke-width="0.075854756"/>
      <path d="M334.60698 558.55702L334.60698 564.00917" fill="none" stroke="#000000"
            stroke-linecap="round" stroke-linejoin="round" stroke-width="0.075854756"/>
      <path d="M334.60698 573.50917L334.60698 568.00917" fill="none" stroke="#000000"
            stroke-linecap="round" stroke-linejoin="round" stroke-width="0.075854756"/>
      <path d="M370.04448 566.00917L334.60698 558.55702" fill="none" stroke="#000000"
            stroke-linecap="round" stroke-linejoin="round" stroke-width="0.075854756"/>
      <path d="M334.60698 573.50917L370.04448 566.00917" fill="none" stroke="#000000"
            stroke-linecap="round" stroke-linejoin="round" stroke-width="0.075854756"/>
      <path d="M278.28803 568.00917L278.28803 564.00917" fill="none" stroke="#000000"
            stroke-linecap="round" stroke-linejoin="round" stroke-width="0.075854756"/>
      <path
        d="M445.04448 566.00917L480.48197 558.55702L480.48197 564.00917L536.80093 564.00917L536.80093 568.00917L480.48197 568.00917L480.48197 573.50917L445.04448 566.00917"
        fill="#000000" fill-opacity="1" fill-rule="evenodd" stroke="#000000" stroke-opacity="1" stroke-width="0"/>
      <path d="M480.48197 564.00917L536.80093 564.00917" fill="none" stroke="#000000"
            stroke-linecap="round" stroke-linejoin="round" stroke-width="0.075854756"/>
      <path d="M480.48197 568.00917L536.80093 568.00917" fill="none" stroke="#000000"
            stroke-linecap="round" stroke-linejoin="round" stroke-width="0.075854756"/>
      <path d="M480.48197 558.55702L480.48197 564.00917" fill="none" stroke="#000000"
            stroke-linecap="round" stroke-linejoin="round" stroke-width="0.075854756"/>
      <path d="M480.48197 573.50917L480.48197 568.00917" fill="none" stroke="#000000"
            stroke-linecap="round" stroke-linejoin="round" stroke-width="0.075854756"/>
      <path d="M445.04448 566.00917L480.48197 558.55702" fill="none" stroke="#000000"
            stroke-linecap="round" stroke-linejoin="round" stroke-width="0.075854756"/>
      <path d="M480.48197 573.50917L445.04448 566.00917" fill="none" stroke="#000000"
            stroke-linecap="round" stroke-linejoin="round" stroke-width="0.075854756"/>
      <path d="M536.80093 568.00917L536.80093 564.00917" fill="none" stroke="#000000"
            stroke-linecap="round" stroke-linejoin="round" stroke-width="0.075854756"/>
      <path
        d="M145.04543 16.104265L180.48293 8.6521155L180.48293 14.104265L559.60793 14.104265L559.60793 8.6521155L595.04543 16.104265L559.60793 23.604265L559.60793 18.104265L180.48293 18.104265L180.48293 23.604265L145.04543 16.104265"
        fill="#000000" fill-opacity="1" fill-rule="evenodd" stroke="#000000" stroke-opacity="1" stroke-width="0"/>
      <path d="M559.60793 14.104265L180.48293 14.104265" fill="none" stroke="#000000"
            stroke-linecap="round" stroke-linejoin="round" stroke-width="0.075854756"/>
      <path d="M559.60793 18.104265L180.48293 18.104265" fill="none" stroke="#000000"
            stroke-linecap="round" stroke-linejoin="round" stroke-width="0.075854756"/>
      <path d="M559.60793 8.6521155L559.60793 14.104265" fill="none" stroke="#000000"
            stroke-linecap="round" stroke-linejoin="round" stroke-width="0.075854756"/>
      <path d="M559.60793 23.604265L559.60793 18.104265" fill="none" stroke="#000000"
            stroke-linecap="round" stroke-linejoin="round" stroke-width="0.075854756"/>
      <path d="M595.04543 16.104265L559.60793 8.6521155" fill="none" stroke="#000000"
            stroke-linecap="round" stroke-linejoin="round" stroke-width="0.075854756"/>
      <path d="M559.60793 23.604265L595.04543 16.104265" fill="none" stroke="#000000"
            stroke-linecap="round" stroke-linejoin="round" stroke-width="0.075854756"/>
      <path d="M180.48293 8.6521155L180.48293 14.104265" fill="none" stroke="#000000"
            stroke-linecap="round" stroke-linejoin="round" stroke-width="0.075854756"/>
      <path d="M180.48293 23.604265L180.48293 18.104265" fill="none" stroke="#000000"
            stroke-linecap="round" stroke-linejoin="round" stroke-width="0.075854756"/>
      <path d="M145.04543 16.104265L180.48293 8.6521155" fill="none" stroke="#000000"
            stroke-linecap="round" stroke-linejoin="round" stroke-width="0.075854756"/>
      <path d="M180.48293 23.604265L145.04543 16.104265" fill="none" stroke="#000000"
            stroke-linecap="round" stroke-linejoin="round" stroke-width="0.075854756"/>
      <path d="M79.000858 169.05083L79.000858 473.17583" fill="none" stroke="#000000"
            stroke-linecap="round" stroke-linejoin="round" stroke-width="0.075854756"/>
      <path d="M83.000858 169.05083L83.000858 473.17583" fill="none" stroke="#000000"
            stroke-linecap="round" stroke-linejoin="round" stroke-width="0.075854756"/>
      <path d="M73.548709 169.05083L79.000858 169.05083" fill="none" stroke="#000000"
            stroke-linecap="round" stroke-linejoin="round" stroke-width="0.075854756"/>
      <path d="M88.500858 169.05083L83.000858 169.05083" fill="none" stroke="#000000"
            stroke-linecap="round" stroke-linejoin="round" stroke-width="0.075854756"/>
      <path d="M81.000858 133.61333L73.548709 169.05083" fill="none" stroke="#000000"
            stroke-linecap="round" stroke-linejoin="round" stroke-width="0.075854756"/>
      <path d="M88.500858 169.05083L81.000858 133.61333" fill="none" stroke="#000000"
            stroke-linecap="round" stroke-linejoin="round" stroke-width="0.075854756"/>
      <path d="M73.548709 473.17583L79.000858 473.17583" fill="none" stroke="#000000"
            stroke-linecap="round" stroke-linejoin="round" stroke-width="0.075854756"/>
      <path d="M88.500858 473.17583L83.000858 473.17583" fill="none" stroke="#000000"
            stroke-linecap="round" stroke-linejoin="round" stroke-width="0.075854756"/>
      <path d="M81.000858 508.61333L73.548709 473.17583" fill="none" stroke="#000000"
            stroke-linecap="round" stroke-linejoin="round" stroke-width="0.075854756"/>
      <path d="M88.500858 473.17583L81.000858 508.61333" fill="none" stroke="#000000"
            stroke-linecap="round" stroke-linejoin="round" stroke-width="0.075854756"/>
      <g>
        <path
          d="M367.53387 603.74987L382.28995 624.74305L368.63678 644.13892L377.19378 644.13892L383.39285 634.66918L384.48308 632.96623L385.42118 631.45766L386.20715 630.14347L387.29315 631.75346L388.32 633.23667L389.28768 634.59311L396.09525 644.13892L404.27194 644.13892L390.31452 625.12336L405.33681 603.74987L396.93193 603.74987L388.64115 616.30014L386.43534 619.68491L375.82466 603.74987L367.53387 603.74987zM411.61194 603.74987L411.61194 659.5035L418.98998 659.5035L418.98998 610.32926L446.44845 610.32926L446.44845 603.74987L411.61194 603.74987z"
          fill="#000000" fill-opacity="1" fill-rule="evenodd" stroke="#000000" stroke-linejoin="round"
          stroke-width="0.075854756"/>
      </g>
      <path
        d="M468.3387 396.04704L468.28191 397.67324L468.11182 399.29152L467.82926 400.89399L467.43561 402.47285L466.93278 404.0204L466.32322 405.52911L465.60991 406.99162L464.79631 408.40081L463.88639 409.74981L462.88459 411.03206L461.79579 412.2413L460.62528 413.37164L459.37878 414.41758L458.06236 415.37402L456.68242 416.2363L455.24569 417.00022L453.75918 417.66206L452.23012 418.21859L450.66596 418.66711L449.07432 419.00542L447.46297 419.23188L445.83974 419.34539L444.21254 419.34539L442.58931 419.23188L440.97796 419.00542L439.38632 418.66711L437.82216 418.21859L436.2931 417.66206L434.80659 417.00022L433.36986 416.2363L431.98992 415.37402L430.6735 414.41758L429.427 413.37164L428.25649 412.2413L427.16769 411.03206L426.16589 409.74981L425.25597 408.40081L424.44238 406.99162L423.72906 405.52911L423.11951 404.0204L422.61667 402.47285L422.22302 400.89399L421.94046 399.29152L421.77037 397.67324L421.71359 396.04704L421.77037 394.42083L421.94046 392.80255L422.22302 391.20008L422.61667 389.62122L423.11951 388.07367L423.72906 386.56496L424.44238 385.10245L425.25597 383.69326L426.16589 382.34426L427.16769 381.06201L428.25649 379.85277L429.427 378.72243L430.6735 377.67649L431.98992 376.72005L433.36986 375.85777L434.80659 375.09385L436.2931 374.43201L437.82216 373.87548L439.38632 373.42696L440.97796 373.08865L442.58931 372.86219L444.21254 372.74868L445.83974 372.74868L447.46297 372.86219L449.07432 373.08865L450.66596 373.42696L452.23012 373.87548L453.75918 374.43201L455.24569 375.09385L456.68242 375.85777L458.06236 376.72005L459.37878 377.67649L460.62528 378.72243L461.79579 379.85277L462.88459 381.06201L463.88639 382.34426L464.79631 383.69326L465.60991 385.10245L466.32322 386.56496L466.93278 388.07367L467.43561 389.62122L467.82926 391.20008L468.11182 392.80255L468.3387 396.04704"
        fill="none" stroke="#000000" stroke-linecap="round" stroke-linejoin="round" stroke-width="0.075854756"/>
      <path d="M445.04448 419.35958L445.02614 372.73448" fill="none" stroke="#000000"
            stroke-linecap="round" stroke-linejoin="round" stroke-width="0.075854756"/>
      <path d="M421.71359 396.04704L468.3387 396.04704" fill="none" stroke="#000000"
            stroke-linecap="round" stroke-linejoin="round" stroke-width="0.075854756"/>
      <path
        d="M657.62403 395.73466L665.07618 431.17216L659.62403 431.17216L659.62403 487.49111L655.62403 487.49111L655.62403 431.17216L650.12403 431.17216L657.62403 395.73466"
        fill="#000000" fill-opacity="1" fill-rule="evenodd" stroke="#000000" stroke-opacity="1" stroke-width="0"/>
      <path d="M659.62403 431.17216L659.62403 487.49111" fill="none" stroke="#000000"
            stroke-linecap="round" stroke-linejoin="round" stroke-width="0.075854756"/>
      <path d="M655.62403 431.17216L655.62403 487.49111" fill="none" stroke="#000000"
            stroke-linecap="round" stroke-linejoin="round" stroke-width="0.075854756"/>
      <path d="M665.07618 431.17216L659.62403 431.17216" fill="none" stroke="#000000"
            stroke-linecap="round" stroke-linejoin="round" stroke-width="0.075854756"/>
      <path d="M650.12403 431.17216L655.62403 431.17216" fill="none" stroke="#000000"
            stroke-linecap="round" stroke-linejoin="round" stroke-width="0.075854756"/>
      <path d="M657.62403 395.73466L665.07618 431.17216" fill="none" stroke="#000000"
            stroke-linecap="round" stroke-linejoin="round" stroke-width="0.075854756"/>
      <path d="M650.12403 431.17216L657.62403 395.73466" fill="none" stroke="#000000"
            stroke-linecap="round" stroke-linejoin="round" stroke-width="0.075854756"/>
      <path d="M655.62403 412.85794L659.62403 412.85794" fill="none" stroke="#000000"
            stroke-linecap="round" stroke-linejoin="round" stroke-width="0.075854756"/>
      <g>
        <path
          d="M30.860997 4.9007879L69.740267 106.13881L84.173246 106.13881L125.60763 4.9007879L110.34596 4.9007879L98.537168 35.562236L56.205032 35.562236L45.086804 4.9007879L30.860997 4.9007879zM94.393729 46.473293L83.827959 74.510563L80.881509 82.521218L78.487527 89.51902L76.645998 95.503988L75.180445 89.027951L73.36194 82.582595L71.19047 76.167939L60.072242 46.473293z"
          fill="#000000" fill-opacity="1" fill-rule="evenodd" stroke="#000000" stroke-linejoin="round"
          stroke-width="0.075854756"/>
      </g>
      <g>
        <path
          d="M616.34735 4.9007879L616.34735 106.13881L654.32887 106.13881L661.55303 105.79736L667.75669 104.77301L672.93982 103.06576L677.27508 100.64876L680.93512 97.49514L683.91993 93.604912L686.12593 89.281161L687.44953 84.826958L687.89073 80.242321L687.4994 75.999138L686.32543 71.924749L684.36881 68.019176L681.62185 64.443548L678.07692 61.35898L673.73398 58.765495L679.38517 56.547995L684.09258 53.486446L687.8562 49.580872L690.59931 44.992405L692.24518 39.882154L692.7938 34.250147L692.46002 29.61948L691.45869 25.21131L689.78981 21.025671L687.62984 17.262058L685.15529 14.119938L682.36614 11.599347L679.17032 9.5698414L675.47576 7.900943L671.28245 6.5926922L666.50598 5.6527573L661.06196 5.0887757L654.95039 4.9007879L616.34735 4.9007879zM651.63564 63.599507L657.01443 63.729956L661.27297 64.121273L664.41124 64.773482L667.538 66.008847L670.10464 67.689234L672.11113 69.814666L673.54982 72.36212L674.41304 75.308559L674.70078 78.654002L674.43222 81.88052L673.62656 84.838468L672.28378 87.527868L670.44224 89.814437L668.14034 91.563884L665.37804 92.776224L661.67196 93.562715L656.53871 94.034601L649.97826 94.191899L629.74447 94.191899L629.74447 63.599507zM654.95039 16.847703L658.84829 16.901426L661.88681 17.062547L664.06596 17.331105L666.9817 18.006343L669.55985 18.927095L671.80038 20.093397L673.74932 21.57814L675.45274 23.454185L676.91062 25.721569L678.0232 28.311228L678.69076 31.154077L678.91328 34.250147L678.59101 37.86032L677.62421 41.140532L676.01287 44.090815L673.82989 46.599906L671.14817 48.556521L667.96769 49.960687L664.03526 50.900642L659.09767 51.464601L653.1549 51.652591L629.74447 51.652591L629.74447 16.847703z"
          fill="#000000" fill-opacity="1" fill-rule="evenodd" stroke="#000000" stroke-linejoin="round"
          stroke-width="0.075854756"/>
      </g>
      <g>
        <path
          d="M30.860997 544.90078L30.860997 646.13881L65.734942 646.13881L72.985957 645.97768L78.993948 645.49427L83.758902 644.68861L89.27581 642.99287L94.224923 640.57586L98.606225 637.43759L103.49777 632.50767L107.4916 626.74138L110.58767 620.13873L112.79366 612.78413L114.11726 604.76197L114.55846 596.07226L114.25921 588.67546L113.36147 581.86179L111.86523 575.63129L109.90092 570.03382L107.59902 565.11923L104.95949 560.88755L102.06292 557.27356L98.989878 554.21201L95.740347 551.70293L92.17238 549.6504L88.144042 547.95849L83.655316 546.62722L78.702367 545.6681L73.281373 545.09261L67.392318 544.90078L30.860997 544.90078zM65.873057 556.8477L72.06903 557.05488L77.30588 557.67639L81.583597 558.71225L85.124698 560.1241L88.151716 561.87354L90.664634 563.9606L93.607238 567.50172L96.081798 571.77175L98.088295 576.77073L99.565349 582.51401L100.45159 589.0169L100.747 596.27943L100.16768 606.05104L98.429746 614.18829L95.533175 620.69119L91.807911 625.75156L87.583911 629.56122L82.861157 632.12017L78.541234 633.27113L72.763443 633.9617L65.52777 634.19189L44.258116 634.19189L44.258116 556.8477z"
          fill="#000000" fill-opacity="1" fill-rule="evenodd" stroke="#000000" stroke-linejoin="round"
          stroke-width="0.075854756"/>
      </g>
      <path
        d="M692.44851 580.39624L705.84563 577.01244L702.28917 566.8802L697.23649 558.48973L690.68755 551.84104L682.84954 547.02623L673.92964 544.13731L663.92784 543.17435L653.69584 543.91481L644.82198 546.13614L637.30625 549.83838L631.01435 554.9448L625.81204 561.37863L621.69929 569.1399L618.72599 577.77208L616.94201 586.81857L616.34735 596.27943L617.01874 606.37331L619.03291 615.56944L622.38986 623.86783L626.98601 631.08816L632.71777 637.0501L639.58514 641.75367L647.26968 645.14899L655.45297 647.18618L664.13501 647.86524L673.7263 647.00587L682.24338 644.42772L689.68622 640.13082L695.8937 634.2763L700.7047 627.02528L704.1192 618.37777L690.92925 615.27019L688.22834 621.96876L684.82152 627.3322L680.70877 631.36054L675.85941 634.16121L670.24275 635.8416L663.85878 636.40173L656.50418 635.78022L650.00128 633.91566L644.35009 630.80809L639.64268 626.65314L635.97114 621.64648L633.33545 615.78812L631.57065 609.43869L630.51177 602.9588L630.15881 596.34848L630.57699 588.10382L631.83153 580.58807L633.92244 573.80127L636.89574 567.9199L640.79748 563.1204L645.62765 559.40282L651.06783 556.75563L656.79959 555.1673L662.82292 554.63786L669.9435 555.35914L676.29677 557.52292L681.88274 561.12925L686.52492 566.1551L690.04685 572.57742L692.44851 580.39624z"
        fill="#000000" fill-opacity="1" fill-rule="evenodd" stroke="#000000" stroke-linejoin="round"
        stroke-width="0.075854756"/>
    </g>
  </g>
</svg>
